<?xml version="1.0" encoding="UTF-8" standalone="no"?>
<!DOCTYPE svg PUBLIC "-//W3C//DTD SVG 1.1//EN"
 "http://www.w3.org/Graphics/SVG/1.1/DTD/svg11.dtd">
<!-- Generated by graphviz version 2.47.0 (20210316.0004)
 -->
<!-- Title: dependencies Pages: 1 -->
<svg width="504pt" height="287pt"
 viewBox="0.00 0.00 504.00 287.00" xmlns="http://www.w3.org/2000/svg" xmlns:xlink="http://www.w3.org/1999/xlink">
<g id="graph0" class="graph" transform="scale(1 1) rotate(0) translate(4 283)">
<title>dependencies</title>
<polygon fill="white" stroke="transparent" points="-4,4 -4,-283 500,-283 500,4 -4,4"/>
<text text-anchor="start" x="227.01" y="-42.4" font-family="Times-12" font-weight="bold" font-size="14.00">Legend</text>
<polygon fill="#ffffb3" stroke="transparent" points="14,-10 14,-30 34,-30 34,-10 14,-10"/>
<text text-anchor="start" x="37.63" y="-15.4" font-family="Times-12" font-size="14.00"> &#160;Declarations</text>
<polygon fill="#8dd3c7" stroke="transparent" points="127,-10 127,-30 147,-30 147,-10 127,-10"/>
<text text-anchor="start" x="150.73" y="-15.4" font-family="Times-12" font-size="14.00"> &#160;Module</text>
<polygon fill="#80b1d3" stroke="transparent" points="213,-10 213,-30 233,-30 233,-10 213,-10"/>
<text text-anchor="start" x="236.78" y="-15.4" font-family="Times-12" font-size="14.00"> &#160;Bootstrap</text>
<polygon fill="#fdb462" stroke="transparent" points="310,-10 310,-30 330,-30 330,-10 310,-10"/>
<text text-anchor="start" x="333.67" y="-15.4" font-family="Times-12" font-size="14.00"> &#160;Providers</text>
<polygon fill="#fb8072" stroke="transparent" points="406,-10 406,-30 426,-30 426,-10 406,-10"/>
<text text-anchor="start" x="429.73" y="-15.4" font-family="Times-12" font-size="14.00"> &#160;Exports</text>
<g id="clust1" class="cluster">
<title>cluster_ApiModule</title>
<polygon fill="none" stroke="black" stroke-dasharray="1,5" points="101,-146 101,-271 241,-271 241,-146 101,-146"/>
</g>
<g id="clust3" class="cluster">
<title>cluster_ApiModule_imports</title>
<polygon fill="none" stroke="black" points="109,-154 109,-206 233,-206 233,-154 109,-154"/>
</g>
<g id="clust7" class="cluster">
<title>cluster_AppModule</title>
<polygon fill="none" stroke="black" stroke-dasharray="1,5" points="268,-70 268,-206 414,-206 414,-70 268,-70"/>
</g>
<g id="clust12" class="cluster">
<title>cluster_AppModule_providers</title>
<polygon fill="none" stroke="black" points="276,-78 276,-130 406,-130 406,-78 276,-78"/>
</g>
<g id="clust13" class="cluster">
<title>cluster_UseCaseModule</title>
<polygon fill="none" stroke="black" stroke-dasharray="1,5" points="82,-70 82,-138 260,-138 260,-70 82,-70"/>
</g>
<g id="clust18" class="cluster">
<title>cluster_UseCaseModule_providers</title>
<polygon fill="none" stroke="black" points="90,-78 90,-130 252,-130 252,-78 90,-78"/>
</g>
<!-- UseCaseModule -->
<g id="node1" class="node">
<title>UseCaseModule</title>
<polygon fill="#8dd3c7" stroke="black" points="225.03,-198 222.03,-202 201.03,-202 198.03,-198 116.97,-198 116.97,-162 225.03,-162 225.03,-198"/>
<text text-anchor="middle" x="171" y="-175.8" font-family="Times,serif" font-size="14.00">UseCaseModule</text>
</g>
<!-- ApiModule -->
<g id="node2" class="node">
<title>ApiModule</title>
<polygon fill="#8dd3c7" stroke="black" points="211.05,-263 208.05,-267 187.05,-267 184.05,-263 130.95,-263 130.95,-227 211.05,-227 211.05,-263"/>
<text text-anchor="middle" x="171" y="-240.8" font-family="Times,serif" font-size="14.00">ApiModule</text>
</g>
<!-- UseCaseModule&#45;&gt;ApiModule -->
<g id="edge1" class="edge">
<title>UseCaseModule&#45;&gt;ApiModule</title>
<path fill="none" stroke="black" d="M171,-198.11C171,-198.11 171,-216.99 171,-216.99"/>
<polygon fill="black" stroke="black" points="167.5,-216.99 171,-226.99 174.5,-216.99 167.5,-216.99"/>
</g>
<!-- AppService -->
<g id="node3" class="node">
<title>AppService</title>
<ellipse fill="#fdb462" stroke="black" cx="341" cy="-104" rx="56.74" ry="18"/>
<text text-anchor="middle" x="341" y="-99.8" font-family="Times,serif" font-size="14.00">AppService</text>
</g>
<!-- AppModule -->
<g id="node4" class="node">
<title>AppModule</title>
<polygon fill="#8dd3c7" stroke="black" points="382.66,-198 379.66,-202 358.66,-202 355.66,-198 299.34,-198 299.34,-162 382.66,-162 382.66,-198"/>
<text text-anchor="middle" x="341" y="-175.8" font-family="Times,serif" font-size="14.00">AppModule</text>
</g>
<!-- AppService&#45;&gt;AppModule -->
<g id="edge2" class="edge">
<title>AppService&#45;&gt;AppModule</title>
<path fill="none" stroke="black" d="M341,-122.01C341,-122.01 341,-151.85 341,-151.85"/>
<polygon fill="black" stroke="black" points="337.5,-151.85 341,-161.85 344.5,-151.85 337.5,-151.85"/>
</g>
<!-- GarageUseCase -->
<g id="node5" class="node">
<title>GarageUseCase</title>
<ellipse fill="#fdb462" stroke="black" cx="171" cy="-104" rx="72.89" ry="18"/>
<text text-anchor="middle" x="171" y="-99.8" font-family="Times,serif" font-size="14.00">GarageUseCase</text>
</g>
<!-- GarageUseCase&#45;&gt;UseCaseModule -->
<g id="edge3" class="edge">
<title>GarageUseCase&#45;&gt;UseCaseModule</title>
<path fill="none" stroke="black" d="M171,-122.01C171,-122.01 171,-151.85 171,-151.85"/>
<polygon fill="black" stroke="black" points="167.5,-151.85 171,-161.85 174.5,-151.85 167.5,-151.85"/>
</g>
</g>
</svg>
